<?xml version="1.0" encoding="UTF-8"?>
<svg version="1.1" xmlns="http://www.w3.org/2000/svg" width="1724" height="667">
<path d="M0 0 C22.44 0 44.88 0 68 0 C68 0.99 68 1.98 68 3 C66.66195312 3.25523437 66.66195312 3.25523437 65.296875 3.515625 C64.12640625 3.75796875 62.9559375 4.0003125 61.75 4.25 C60.58984375 4.48203125 59.4296875 4.7140625 58.234375 4.953125 C54.10749703 6.28887777 52.07512334 8.05315503 49.98828125 11.83203125 C45.86487209 23.91624192 46.83023227 37.89898314 46.68359375 50.55859375 C46.66511348 51.9134571 46.6462733 53.26831558 46.6270752 54.62316895 C46.55955702 59.56122204 46.49891528 64.49936724 46.4375 69.4375 C46.293125 80.513125 46.14875 91.58875 46 103 C84.61 103 123.22 103 163 103 C162.7834375 86.3865625 162.7834375 86.3865625 162.5625 69.4375 C162.51939697 65.9717749 162.47629395 62.5060498 162.43188477 58.93530273 C162.38851827 55.76214631 162.38851827 55.76214631 162.34410095 52.58900452 C162.32518477 51.20218284 162.30779701 49.8153397 162.29173279 48.42848206 C163.27970195 27.02670334 163.27970195 27.02670334 156.31640625 7.87109375 C153.37685481 5.49665001 150.93813261 4.98762652 147.25 4.25 C145.49429688 3.88648438 145.49429688 3.88648438 143.703125 3.515625 C142.81109375 3.34546875 141.9190625 3.1753125 141 3 C141 2.01 141 1.02 141 0 C163.44 0 185.88 0 209 0 C209 0.99 209 1.98 209 3 C208.11957031 3.14695312 207.23914063 3.29390625 206.33203125 3.4453125 C198.8858551 4.59909641 198.8858551 4.59909641 192.8125 8.625 C188.01169757 17.56442521 188.71377798 27.44100297 188.74121094 37.30078125 C188.73849719 38.94265904 188.7349341 40.58453562 188.73059082 42.22640991 C188.72151023 46.66438688 188.72499314 51.10227037 188.73134899 55.54024887 C188.73643147 60.19651278 188.73171131 64.85276896 188.72857666 69.5090332 C188.72494355 77.32667469 188.7297189 85.14427833 188.73925781 92.96191406 C188.75014109 101.98522507 188.74661505 111.00844568 188.735605 120.03175449 C188.72651344 127.79507754 188.72525599 135.55837345 188.73048234 143.3217001 C188.73359176 147.95134906 188.73403971 152.58095561 188.72740936 157.21060181 C188.7216093 161.56418694 188.72568128 165.91765611 188.73719788 170.27122879 C188.73983027 171.86388583 188.7391038 173.45655273 188.73467255 175.04920578 C188.12571535 189.83459699 188.12571535 189.83459699 194.09375 202.78125 C198.47289825 205.58103331 203.94768547 206.15671471 209 207 C209 207.99 209 208.98 209 210 C186.56 210 164.12 210 141 210 C141 209.01 141 208.02 141 207 C141.89203125 206.82984375 142.7840625 206.6596875 143.703125 206.484375 C144.87359375 206.24203125 146.0440625 205.9996875 147.25 205.75 C148.41015625 205.51796875 149.5703125 205.2859375 150.765625 205.046875 C154.89250297 203.71112223 156.92487666 201.94684497 159.01171875 198.16796875 C163.15718297 186.01912275 162.17122597 171.94815187 162.31640625 159.22265625 C162.33488518 157.84793619 162.35372531 156.47322093 162.3729248 155.09851074 C162.4404592 150.0865638 162.50109078 145.07452574 162.5625 140.0625 C162.706875 128.821875 162.85125 117.58125 163 106 C124.39 106 85.78 106 46 106 C46.2165625 122.8609375 46.2165625 122.8609375 46.4375 140.0625 C46.48060303 143.58043213 46.52370605 147.09836426 46.56811523 150.72290039 C46.61147971 153.94262656 46.61147971 153.94262656 46.65589905 157.16233826 C46.67482069 158.56999347 46.69220741 159.97766994 46.70826721 161.38536072 C45.70539329 182.88178661 45.70539329 182.88178661 52.68359375 202.12890625 C55.62314519 204.50334999 58.06186739 205.01237348 61.75 205.75 C63.50570312 206.11351562 63.50570312 206.11351562 65.296875 206.484375 C66.18890625 206.65453125 67.0809375 206.8246875 68 207 C68 207.99 68 208.98 68 210 C45.56 210 23.12 210 0 210 C0 209.01 0 208.02 0 207 C0.88042969 206.85304688 1.76085937 206.70609375 2.66796875 206.5546875 C10.1141449 205.40090359 10.1141449 205.40090359 16.1875 201.375 C20.98830243 192.43557479 20.28622202 182.55899703 20.25878906 172.69921875 C20.26150281 171.05734096 20.2650659 169.41546438 20.26940918 167.77359009 C20.27848977 163.33561312 20.27500686 158.89772963 20.26865101 154.45975113 C20.26356853 149.80348722 20.26828869 145.14723104 20.27142334 140.4909668 C20.27505645 132.67332531 20.2702811 124.85572167 20.26074219 117.03808594 C20.24985891 108.01477493 20.25338495 98.99155432 20.264395 89.96824551 C20.27348656 82.20492246 20.27474401 74.44162655 20.26951766 66.6782999 C20.26640824 62.04865094 20.26596029 57.41904439 20.27259064 52.78939819 C20.2783907 48.43581306 20.27431872 44.08234389 20.26280212 39.72877121 C20.26016973 38.13611417 20.2608962 36.54344727 20.26532745 34.95079422 C20.87428465 20.16540301 20.87428465 20.16540301 14.90625 7.21875 C10.52710175 4.41896669 5.05231453 3.84328529 0 3 C0 2.01 0 1.02 0 0 Z " fill="#FFFFFF" transform="translate(708,453)"/>
<path d="M0 0 C14.5355725 -0.07051853 29.07112193 -0.12319565 43.60683155 -0.15543652 C50.35814493 -0.17081373 57.10935117 -0.19172481 63.8605957 -0.22631836 C70.3899364 -0.25919032 76.91916647 -0.27691112 83.4485836 -0.28463173 C85.92533799 -0.29012569 88.40208712 -0.30085214 90.87879372 -0.31719017 C108.32081214 -0.42755282 125.88876983 -0.21274238 142.5 5.8125 C143.23863281 6.07111816 143.97726563 6.32973633 144.73828125 6.59619141 C159.04672888 11.76765529 171.23185599 19.64785858 179 33 C179.65162109 34.06734375 179.65162109 34.06734375 180.31640625 35.15625 C184.94504224 44.31675608 184.45192077 56.81762771 182.15234375 66.609375 C176.61148858 81.10951124 165.14608801 90.27831479 151.5 96.8125 C136.36378664 103.15010876 120.3207207 105.957487 104 107 C109.7312322 108.58102957 114.23772043 108.97261206 120.1875 108.5625 C126.35159672 108.52953692 126.35159672 108.52953692 128.87890625 110.36328125 C130.54608277 112.80942344 131.7445047 115.31688503 133 118 C134.06359795 119.96319801 135.15970387 121.90640038 136.25634766 123.85131836 C137.5537754 126.15811127 138.82787728 128.47689827 140.1015625 130.796875 C143.84098679 137.5575043 147.76112534 144.2118496 151.67236328 150.87402344 C154.58016146 155.83285078 157.46520328 160.80089144 160.28125 165.8125 C165.40774567 174.93504559 170.46120898 183.79678945 177 192 C177.64066406 192.85207031 178.28132812 193.70414063 178.94140625 194.58203125 C180.96892204 196.96349667 182.82268215 198.49715848 185.4375 200.1875 C186.17871094 200.67605469 186.91992188 201.16460938 187.68359375 201.66796875 C191.75806922 204.01096392 195.70630778 205.26517745 200.3125 206.125 C201.63701172 206.37636719 201.63701172 206.37636719 202.98828125 206.6328125 C203.65214844 206.75398437 204.31601563 206.87515625 205 207 C205 207.99 205 208.98 205 210 C181.24 210 157.48 210 133 210 C133 209.01 133 208.02 133 207 C133.92232422 206.85304688 133.92232422 206.85304688 134.86328125 206.703125 C135.67152344 206.55359375 136.47976562 206.4040625 137.3125 206.25 C138.51326172 206.04117188 138.51326172 206.04117188 139.73828125 205.828125 C142.63638979 204.76698681 143.4383037 203.6358835 145 201 C145.07104461 193.91561711 141.57740845 187.42359933 138.25 181.375 C137.76684326 180.47531494 137.28368652 179.57562988 136.78588867 178.64868164 C131.98361116 169.79107987 126.88711919 161.10367261 121.76953125 152.42578125 C117.26521748 144.77764519 112.87572386 137.06472747 108.49014282 129.34811401 C104.77344425 122.80862681 101.0220419 116.30915235 97.04882812 109.92138672 C96 108 96 108 96 106 C79.5 106 63 106 46 106 C46.14958761 118.07524722 46.14958761 118.07524722 46.30664062 130.15039062 C46.37250117 135.08729496 46.43755456 140.0241992 46.49731445 144.96118164 C46.54563971 148.94887338 46.59799039 152.93649512 46.65294075 156.92410088 C46.67306077 158.4328273 46.69181674 159.94157266 46.70907402 161.45033455 C45.71025374 182.91339955 45.71025374 182.91339955 52.68359375 202.12890625 C55.62314519 204.50334999 58.06186739 205.01237348 61.75 205.75 C63.50570312 206.11351562 63.50570312 206.11351562 65.296875 206.484375 C66.18890625 206.65453125 67.0809375 206.8246875 68 207 C68 207.99 68 208.98 68 210 C45.56 210 23.12 210 0 210 C0 209.01 0 208.02 0 207 C0.88042969 206.85304688 1.76085938 206.70609375 2.66796875 206.5546875 C10.1141449 205.40090359 10.1141449 205.40090359 16.1875 201.375 C20.98830243 192.43557479 20.28622202 182.55899703 20.25878906 172.69921875 C20.26150281 171.05734096 20.2650659 169.41546438 20.26940918 167.77359009 C20.27848977 163.33561312 20.27500686 158.89772963 20.26865101 154.45975113 C20.26356853 149.80348722 20.26828869 145.14723104 20.27142334 140.4909668 C20.27505645 132.67332531 20.2702811 124.85572167 20.26074219 117.03808594 C20.24985891 108.01477493 20.25338495 98.99155432 20.264395 89.96824551 C20.27348656 82.20492246 20.27474401 74.44162655 20.26951766 66.6782999 C20.26640824 62.04865094 20.26596029 57.41904439 20.27259064 52.78939819 C20.2783907 48.43581306 20.27431872 44.08234389 20.26280212 39.72877121 C20.26016973 38.13611417 20.2608962 36.54344727 20.26532745 34.95079422 C20.87428465 20.16540301 20.87428465 20.16540301 14.90625 7.21875 C10.52710175 4.41896669 5.05231453 3.84328529 0 3 C0 2.01 0 1.02 0 0 Z M46 3 C46 36 46 69 46 103 C59.179375 103.061875 59.179375 103.061875 72.625 103.125 C75.36893066 103.14320801 78.11286133 103.16141602 80.93994141 103.18017578 C83.16047979 103.18602721 85.38102036 103.19112122 87.6015625 103.1953125 C89.27545044 103.2106604 89.27545044 103.2106604 90.9831543 103.22631836 C110.63016804 103.23057741 129.9813464 99.42004963 144.8125 85.6875 C154.54194977 75.21142578 157.86225641 63.051357 157.34375 49 C156.49338728 36.34174356 150.84164766 26.40293317 141.8125 17.75 C126.60104709 5.02676114 107.19284939 2.81672842 88.08984375 2.90234375 C87.0177063 2.90335083 85.94556885 2.90435791 84.84094238 2.90539551 C80.87311722 2.91058918 76.90530743 2.92455016 72.9375 2.9375 C59.6034375 2.9684375 59.6034375 2.9684375 46 3 Z " fill="#FFFFFF" transform="translate(0,453)"/>
<path d="M0 0 C14.27739672 10.20890372 23.54738378 23.86651236 32 39 C32.64324219 40.14597656 33.28648437 41.29195312 33.94921875 42.47265625 C39.098241 51.82690941 43.61456284 61.48605595 48.19921875 71.125 C66.2664746 109.78300185 66.2664746 109.78300185 100 134 C113.31904597 137.98024288 125.90184065 138.45262246 138.84375 132.74609375 C145.47939132 129.07850284 150.56340796 124.30977612 153 117 C153.83593721 109.36016878 153.82037424 103.16707479 148.9296875 96.98046875 C136.73879671 84.46876504 118.15330881 79.6286141 102.0625 74.0625 C57.56940729 58.66018696 57.56940729 58.66018696 48.33203125 40.76953125 C46.83528876 36.53388167 46.49868112 33.13321389 46.5625 28.6875 C46.57079834 27.94056885 46.57909668 27.1936377 46.58764648 26.42407227 C46.86684141 17.25833122 49.68450358 10.49200897 56.02734375 3.8125 C69.3193998 -8.40039903 86.08730883 -10.42511361 103.4375 -10.375 C104.49806107 -10.37418427 104.49806107 -10.37418427 105.58004761 -10.37335205 C127.89229377 -10.29454027 147.96840491 -4.94863899 167 7 C167.33 7.66 167.66 8.32 168 9 C167.34 9 166.68 9 166 9 C160.25040108 20.42219428 157.82284505 30.20259412 157 43 C155.68 43.33 154.36 43.66 153 44 C152.84144531 42.98421875 152.68289063 41.9684375 152.51953125 40.921875 C150.11631465 26.39092151 146.10677353 13.15760527 134.0625 3.6875 C132.72579699 2.76581145 131.37190296 1.86842789 130 1 C129.40832031 0.62101563 128.81664062 0.24203125 128.20703125 -0.1484375 C113.51643686 -8.48041641 95.72252905 -7.04015452 80 -3 C74.27052401 -1.00745612 69.03639747 1.53965287 65.77734375 6.8515625 C63.63806713 12.76413606 64.00670902 19.56563201 66.5 25.3125 C76.98401525 42.72601847 104.39019853 48.53674729 122.19921875 54.84375 C161.0836708 68.70185885 161.0836708 68.70185885 169.66796875 85.20703125 C171.35591133 89.36866366 171.49813747 93.30072528 171.4375 97.75 C171.42847656 98.54277344 171.41945313 99.33554687 171.41015625 100.15234375 C171.07466014 111.57785015 167.03133732 119.85730965 159 128 C144.06905758 141.09328797 125.90815321 142.19211342 107 141 C102.38047074 140.37326042 98.23649158 138.93391912 94 137 C93.06542969 136.5875 92.13085938 136.175 91.16796875 135.75 C80.86839909 130.67944263 73.15599187 122.96627676 66.375 113.875 C65.96830078 113.33302979 65.56160156 112.79105957 65.14257812 112.23266602 C56.47274646 100.10408872 50.02036493 86.32647247 43.4375 73 C42.7276034 71.57011888 42.01731714 70.14043115 41.30664062 68.7109375 C38.48466978 63.03158002 35.66603171 57.35062801 32.86108398 51.6628418 C27.87739991 41.54421078 27.87739991 41.54421078 22.1875 31.8125 C21.7735498 31.16015381 21.35959961 30.50780762 20.93310547 29.83569336 C9.82496986 12.7368167 -4.09026843 -0.35218449 -24.5625 -4.8125 C-37.86220347 -7.18167795 -51.28201784 -6.55495585 -62.82421875 1.23046875 C-66.72126234 4.29714954 -68.7301055 6.80318433 -69.3359375 11.734375 C-69.43749314 19.57447068 -68.606123 24.72010139 -63.515625 30.76171875 C-52.22412595 41.87834945 -34.50572187 46.65101506 -20 52 C24.98715749 68.63927172 24.98715749 68.63927172 34.125 83.4375 C38.09719924 92.53099897 37.44159142 104.42004116 34 113.5625 C27.46743481 126.7923169 16.85087031 132.72586559 3.56640625 137.921875 C-6.68379685 141.02051252 -16.81488483 141.40392694 -27.4375 141.375 C-28.18811707 141.37445618 -28.93873413 141.37391235 -29.71209717 141.37335205 C-41.83468653 141.33302193 -53.33078751 140.54394282 -65 137 C-65.69109863 136.79101074 -66.38219727 136.58202148 -67.09423828 136.36669922 C-78.03975797 132.91307861 -88.00358118 127.56731246 -98 122 C-98 117.89015768 -97.91430635 117.47883138 -95.6875 114.4375 C-89.83814527 105.44866109 -89.19439617 94.41232426 -88 84 C-86.68 84.33 -85.36 84.66 -84 85 C-83.91363281 85.94359375 -83.82726562 86.8871875 -83.73828125 87.859375 C-82.15784427 102.30079917 -77.71796346 115.52227454 -66.375 125.25 C-51.01499922 136.74714344 -31.38175168 138.48287982 -12.875 136.25 C-1.09000592 134.3864486 8.70301475 130.72931366 16 121 C19.20624746 115.79549268 18.76067858 109.88488608 18 104 C14.05953913 93.65241181 3.82727391 88.59696707 -5.6875 84.25 C-14.11647045 80.52901206 -22.80747439 77.5329223 -31.5 74.5 C-64.05626503 63.14074415 -64.05626503 63.14074415 -75 54 C-75.65226562 53.45859375 -76.30453125 52.9171875 -76.9765625 52.359375 C-82.97685515 46.89527871 -86.81186205 40.87488138 -87.4453125 32.671875 C-87.77810697 24.52520209 -87.7146133 16.94638291 -83 10 C-82.50242187 9.23429688 -82.00484375 8.46859375 -81.4921875 7.6796875 C-64.13836081 -16.77710082 -22.8283449 -15.19696735 0 0 Z " fill="#FFFFFF" transform="translate(465,526)"/>
<path d="M0 0 C-0.45890625 0.69222656 -0.9178125 1.38445313 -1.390625 2.09765625 C-8.36648985 13.22093655 -11.45416784 24.87273666 -12 38 C-13.32 38.33 -14.64 38.66 -16 39 C-16.08975098 38.45698242 -16.17950195 37.91396484 -16.27197266 37.35449219 C-19.04416331 21.03895916 -22.74108707 6.50748443 -36.60546875 -3.96875 C-54.93377774 -16.17038871 -76.25044021 -18.18515524 -97.625 -14.6875 C-109.43423173 -12.28191576 -121.95906759 -8.63628178 -129.78125 1.09375 C-134.63946115 8.69249051 -134.81947819 15.13306178 -134 24 C-131.12299642 36.14193035 -122.12756485 45.39228131 -111.90625 52 C-97.45904533 60.48276237 -82.14223986 66.89255101 -66.50616455 72.81323242 C-22.81685581 89.40562294 -22.81685581 89.40562294 -9 101 C-8.41734375 101.42410156 -7.8346875 101.84820312 -7.234375 102.28515625 C0.30375971 107.9006859 4.92176832 116.99822122 7 126 C8.62328702 140.22860769 4.69866506 152.7369886 -4 164 C-18.09205578 180.94071822 -39.6770659 188.48058947 -61 191 C-62.03084717 191.12181641 -62.03084717 191.12181641 -63.08251953 191.24609375 C-98.73743637 195.06716122 -139.25175809 186.5144604 -169 166 C-167.71740434 162.65461223 -166.25588724 159.5296591 -164.5625 156.375 C-159.72699314 146.73243044 -158.31775827 136.61958135 -157 126 C-156.01 126 -155.02 126 -154 126 C-153.90203125 126.58265625 -153.8040625 127.1653125 -153.703125 127.765625 C-150.28233777 146.52097565 -142.4568401 161.38786978 -126.8125 172.75 C-105.43323174 187.22187821 -79.85515719 189.66863145 -55 185 C-40.12087504 181.66861357 -26.20290186 176.02643939 -17.046875 163.28125 C-12.53828298 155.44388443 -11.5953144 147.89948461 -13 139 C-17.69386655 124.77017297 -28.03389546 117.70015559 -40.84013367 111.04350281 C-52.38590758 105.27930159 -64.2822377 100.79089007 -76.4375 96.5 C-121.63923199 80.51078718 -121.63923199 80.51078718 -138 66 C-138.97066406 65.15308594 -138.97066406 65.15308594 -139.9609375 64.2890625 C-148.63919067 56.21715016 -153.3728218 46.1271842 -154.28125 34.35546875 C-154.62829742 20.08314367 -151.35506157 8.57830602 -141.6875 -2.0625 C-108.33808908 -33.83090181 -35.17774359 -24.834602 0 0 Z " fill="#FFFFFF" transform="translate(171,21)"/>
<path d="M0 0 C0.99 0 1.98 0 3 0 C3 15.84 3 31.68 3 48 C16.53 48 30.06 48 44 48 C44 49.32 44 50.64 44 52 C30.47 52 16.94 52 3 52 C3.08567632 65.37003354 3.17951692 78.73994251 3.28752708 92.10981464 C3.33736432 98.31871135 3.38369518 104.52759207 3.421875 110.73657227 C3.45888694 116.73427427 3.50528941 122.73183833 3.55806351 128.72942162 C3.57652317 131.01178747 3.59166184 133.29418279 3.60334396 135.5765934 C3.62035132 138.78598631 3.64942016 141.99506905 3.68115234 145.2043457 C3.68331253 146.13727448 3.68547272 147.07020325 3.68769836 148.03140259 C3.8347774 159.75971161 5.51340692 171.27766822 14 180 C21.53733255 186.12865632 31.5334472 188.70521083 41.171875 188.34765625 C53.44849096 186.83851423 64.02042442 183.39826042 73.375 175.0625 C76 173 76 173 78.375 173.1875 C78.91125 173.455625 79.4475 173.72375 80 174 C76.31269906 182.50634772 66.02519009 186.49988313 58 190 C55.33933466 190.98307672 52.80342102 191.58526168 50 192 C49.16726563 192.13277344 48.33453125 192.26554688 47.4765625 192.40234375 C31.02883992 194.40761404 13.06800617 191.44561616 -0.87890625 182.3671875 C-2.86738479 181.08547942 -4.86603981 180.01617152 -7 179 C-7.57105469 179.44730469 -8.14210938 179.89460937 -8.73046875 180.35546875 C-23.32824682 191.23998054 -39.70148633 194.32167186 -57.48120117 192.08666992 C-68.39032686 190.49168541 -77.93238774 187.37140189 -87 181 C-87.63550781 180.56042969 -88.27101563 180.12085938 -88.92578125 179.66796875 C-96.6458266 173.72815558 -101.92941776 164.43844003 -104 155 C-104.45614035 149.39094644 -104.46537594 143.79670924 -104.4765625 138.171875 C-104.49090568 136.53434999 -104.50666852 134.89683687 -104.52377319 133.25933838 C-104.56544394 128.96378964 -104.59054492 124.66831449 -104.61126709 120.37261963 C-104.64718202 113.513826 -104.70878984 106.65521582 -104.76975632 99.79660797 C-104.78855545 97.42338569 -104.80049444 95.05021182 -104.81118774 92.67694092 C-104.1798555 74.80487966 -104.1798555 74.80487966 -109 58 C-113.57934488 53.64403779 -118.94767549 52.90904479 -125 52 C-125 50.68 -125 49.36 -125 48 C-123.60201172 47.96132812 -123.60201172 47.96132812 -122.17578125 47.921875 C-111.52831413 47.44817576 -99.36238057 46.73626789 -91.359375 38.8125 C-86.18472266 31.91296354 -85.08859745 23.33636465 -84 15 C-83.01 15 -82.02 15 -81 15 C-81 25.89 -81 36.78 -81 48 C-74.07968241 47.94875737 -67.16153777 47.88554122 -60.24194336 47.79248047 C-57.89208102 47.76439639 -55.54212643 47.74311992 -53.19213867 47.72900391 C-49.79818918 47.70740015 -46.40533446 47.66065973 -43.01171875 47.609375 C-41.97480392 47.60814636 -40.9378891 47.60691772 -39.86955261 47.60565186 C-29.54723094 47.40215191 -19.38646109 44.58084164 -12 37 C-5.65080155 28.39972209 -2.78273954 19.46039281 -1.3125 9 C-1.11817383 7.69482422 -1.11817383 7.69482422 -0.91992188 6.36328125 C-0.60542482 4.24333814 -0.30158904 2.12181791 0 0 Z M-81 52 C-81.04644437 65.3699232 -81.08193061 78.73982704 -81.10362434 92.10981464 C-81.11403889 98.31876295 -81.12815549 104.52765584 -81.15087891 110.73657227 C-81.17269039 116.73419422 -81.18458613 122.73176304 -81.18975449 128.72942162 C-81.19343536 131.01182071 -81.20062302 133.29421706 -81.21146011 135.5765934 C-81.22608541 138.78590693 -81.22797334 141.99500394 -81.22705078 145.2043457 C-81.23424133 146.13727448 -81.24143188 147.07020325 -81.24884033 148.03140259 C-81.20983182 160.66180031 -79.06556129 171.72840323 -70 181 C-62.50089719 187.15311 -52.44374812 189.70436485 -42.828125 189.34765625 C-29.85964123 187.75346418 -17.88141145 184.06559964 -9 174 C-9.38671875 173.55011719 -9.7734375 173.10023438 -10.171875 172.63671875 C-18.79648082 161.98404968 -19.59276749 151.15865665 -19.57421875 137.9765625 C-19.58669844 136.3418938 -19.60104205 134.70723838 -19.61714172 133.07260132 C-19.65493613 128.79346926 -19.6703083 124.5145674 -19.67993164 120.23529053 C-19.69976077 113.39631912 -19.75712577 106.55752066 -19.80869484 99.71873093 C-19.8238016 97.35435121 -19.83118666 94.99005987 -19.83683777 92.62564087 C-18.80287884 72.82442577 -18.80287884 72.82442577 -26.3125 55.5625 C-32.71284779 51.84136756 -38.43731186 51.7283592 -45.6484375 51.8046875 C-46.66096588 51.8075174 -47.67349426 51.81034729 -48.71670532 51.81326294 C-51.93625938 51.82441746 -55.15553065 51.84951354 -58.375 51.875 C-60.56379805 51.8850359 -62.75260049 51.89416069 -64.94140625 51.90234375 C-70.29436658 51.9243413 -75.64716308 51.95777176 -81 52 Z " fill="#FFFFFF" transform="translate(622,20)"/>
<path d="M0 0 C0.495 5.94 0.495 5.94 1 12 C2.340625 11.113125 3.68125 10.22625 5.0625 9.3125 C22.36969513 -1.10638209 45.30997053 -2.97011769 64.87939453 1.07666016 C80.10139717 4.9023466 92.00627464 12.75557563 100.45703125 25.86328125 C105.27608945 35.65999957 105.45519429 45.20332148 105.4765625 55.890625 C105.49091086 57.52432512 105.50667459 59.15801336 105.52377319 60.79168701 C105.56540398 65.07368594 105.59053007 69.35561127 105.61126709 73.63775635 C105.64720847 80.47444504 105.70886603 87.31095015 105.76975632 94.14745331 C105.78852225 96.51010636 105.80048428 98.87271101 105.81118774 101.2354126 C104.89473517 121.23466632 104.89473517 121.23466632 111.68359375 139.1328125 C114.62338517 141.5024926 117.06447747 142.01289549 120.75 142.75 C122.50570313 143.11351562 122.50570313 143.11351562 124.296875 143.484375 C125.18890625 143.65453125 126.0809375 143.8246875 127 144 C127 144.99 127 145.98 127 147 C104.56 147 82.12 147 59 147 C59 146.01 59 145.02 59 144 C59.88042969 143.84144531 60.76085938 143.68289063 61.66796875 143.51953125 C70.58980313 141.95447926 70.58980313 141.95447926 77 136 C80.32752104 128.67945371 80.14954731 120.08331762 80.16113281 112.16650391 C80.16609772 111.33429825 80.17106262 110.50209259 80.17617798 109.64466858 C80.19065055 106.92195782 80.19757524 104.19930523 80.203125 101.4765625 C80.20595238 100.53871288 80.20877975 99.60086327 80.21169281 98.63459396 C80.22662214 93.67468744 80.23589201 88.71480955 80.24023438 83.75488281 C80.24572036 78.65890831 80.26976921 73.56320077 80.29820633 68.46730995 C80.31691294 64.52254487 80.32204249 60.57784324 80.32357025 56.63303757 C80.32657747 54.75533967 80.33453988 52.87764236 80.34775543 50.99998856 C80.54524955 31.49227404 80.54524955 31.49227404 71 15 C61.68280158 6.17318044 49.87085165 4.39261986 37.51171875 4.69140625 C25.95202147 5.28910783 15.89808858 9.08123433 5.79296875 14.51171875 C3 16 3 16 0 17 C0.10804575 29.2578347 0.22078328 41.51561672 0.33933926 53.77335453 C0.394259 59.46647956 0.44762559 65.15960992 0.49731445 70.8527832 C0.54541941 76.35768538 0.59777164 81.86253295 0.65294075 87.3673687 C0.67315757 89.45664529 0.69190158 91.54593672 0.70907402 93.63524055 C-0.66774542 117.52616262 -0.66774542 117.52616262 6.68359375 139.12890625 C9.62314519 141.50334999 12.06186739 142.01237348 15.75 142.75 C17.50570313 143.11351562 17.50570313 143.11351562 19.296875 143.484375 C20.18890625 143.65453125 21.0809375 143.8246875 22 144 C22 144.99 22 145.98 22 147 C-0.44 147 -22.88 147 -46 147 C-46 146.01 -46 145.02 -46 144 C-45.11957031 143.84144531 -44.23914062 143.68289063 -43.33203125 143.51953125 C-34.41019687 141.95447926 -34.41019687 141.95447926 -28 136 C-24.69887195 128.73751829 -24.84994837 120.22220951 -24.85473633 112.3659668 C-24.85137772 111.55487457 -24.8480191 110.74378235 -24.84455872 109.90811157 C-24.83514292 107.25513126 -24.8331104 104.60221468 -24.83203125 101.94921875 C-24.82881229 100.08510819 -24.82544775 98.22099787 -24.82194519 96.35688782 C-24.81597743 92.45935481 -24.81410288 88.56184389 -24.81469727 84.66430664 C-24.81479878 79.69852485 -24.80114672 74.73288637 -24.78392506 69.76713848 C-24.77274402 65.91926945 -24.77077992 62.07143441 -24.77130699 58.2235508 C-24.77013606 56.39413776 -24.76576478 54.56472359 -24.75797462 52.73532677 C-23.99754658 34.54036045 -23.99754658 34.54036045 -30 18 C-34.68836994 14.76279219 -39.46225889 14.35687665 -45 14 C-45.33 12.68 -45.66 11.36 -46 10 C-45.31075439 9.93006836 -44.62150879 9.86013672 -43.91137695 9.78808594 C-23.74998264 7.98432412 -23.74998264 7.98432412 -4.79296875 1.375 C-2 0 -2 0 0 0 Z " fill="#FFFFFF" transform="translate(1172,516)"/>
<path d="M0 0 C0.00238835 0.59284696 0.00477671 1.18569391 0.00723743 1.79650593 C0.06653169 16.26270962 0.14217318 30.72876075 0.23571491 45.19478321 C0.2805634 52.1906311 0.32000284 59.18642933 0.34643555 66.18237305 C0.37197853 72.93872404 0.41295633 79.69484359 0.46318626 86.45105553 C0.47982132 89.02369097 0.49135645 91.59636479 0.49761391 94.1690464 C0.50729128 97.78326109 0.5353954 101.39691179 0.56762695 105.01098633 C0.56619186 106.0654747 0.56475677 107.11996307 0.5632782 108.20640564 C0.69726121 118.88791899 2.57311115 128.02367294 10 136 C19.31719842 144.82681956 31.12914835 146.60738014 43.48828125 146.30859375 C55.5096706 145.68702009 71.26900052 141.73099948 80 133 C80.19346036 130.24693591 80.26222849 127.59487119 80.24291992 124.84106445 C80.24576744 123.57466629 80.24576744 123.57466629 80.24867249 122.28268433 C80.25239225 119.47612365 80.24164791 116.6698192 80.23046875 113.86328125 C80.22927608 111.90667247 80.22882397 109.95006311 80.2290802 107.99345398 C80.22751257 103.87833095 80.21921019 99.76329456 80.20581055 95.64819336 C80.18896573 90.41237921 80.18499206 85.17666162 80.18575573 79.94082355 C80.18548137 75.89036665 80.17995563 71.83993023 80.17275429 67.78948021 C80.16960219 65.8620742 80.16760844 63.9346659 80.16686058 62.00725746 C81.27126511 40.37655928 81.27126511 40.37655928 76 20 C72.27508714 16.36593868 69.46656365 14.94665636 64.375 14.4375 C63.55773438 14.35371094 62.74046875 14.26992188 61.8984375 14.18359375 C61.27195312 14.12300781 60.64546875 14.06242188 60 14 C59.505 12.02 59.505 12.02 59 10 C59.68924561 9.93006836 60.37849121 9.86013672 61.08862305 9.78808594 C81.25001736 7.98432412 81.25001736 7.98432412 100.20703125 1.375 C103 0 103 0 105 0 C105.00496522 0.87242655 105.00496522 0.87242655 105.01003075 1.76247787 C105.09150787 15.96195726 105.18367952 30.16133425 105.28752708 44.36066818 C105.33749476 51.22756509 105.38393842 58.094451 105.421875 64.96142578 C105.45852977 71.59453963 105.50528429 78.22753393 105.55806351 84.8605423 C105.57652533 87.38490854 105.59166322 89.90930146 105.60334396 92.43370819 C105.62034749 95.98295236 105.64941574 99.53191572 105.68115234 103.08105469 C105.68331253 104.11324631 105.68547272 105.14543793 105.68769836 106.20890808 C105.77988079 120.3002478 105.77988079 120.3002478 111 133 C115.68836994 136.23720781 120.46225889 136.64312335 126 137 C126.33 138.32 126.66 139.64 127 141 C126.31075439 141.06993164 125.62150879 141.13986328 124.91137695 141.21191406 C104.74998264 143.01567588 104.74998264 143.01567588 85.79296875 149.625 C83 151 83 151 81 151 C80.505 145.06 80.505 145.06 80 139 C78.659375 139.886875 77.31875 140.77375 75.9375 141.6875 C58.63030487 152.10638209 35.69002947 153.97011769 16.12060547 149.92333984 C0.89860283 146.0976534 -11.00627464 138.24442437 -19.45703125 125.13671875 C-24.03785286 115.82431431 -24.45375945 106.92909302 -24.4765625 96.67578125 C-24.49091829 95.20141718 -24.50668326 93.72706624 -24.52377319 92.25273132 C-24.56536728 88.39033642 -24.59051306 84.52802277 -24.61126709 80.66546631 C-24.64722671 74.50422512 -24.70905376 68.34318717 -24.76975632 62.18214989 C-24.78844626 60.05830761 -24.80046228 57.93451866 -24.81118774 55.81062317 C-24.17106821 37.36366838 -24.17106821 37.36366838 -29 20 C-32.72491286 16.36593868 -35.53343635 14.94665636 -40.625 14.4375 C-41.44226563 14.35371094 -42.25953125 14.26992188 -43.1015625 14.18359375 C-43.72804688 14.12300781 -44.35453125 14.06242188 -45 14 C-45.33 12.68 -45.66 11.36 -46 10 C-45.31075439 9.93006836 -44.62150879 9.86013672 -43.91137695 9.78808594 C-23.74998264 7.98432412 -23.74998264 7.98432412 -4.79296875 1.375 C-2 0 -2 0 0 0 Z " fill="#FFFFFF" transform="translate(979,516)"/>
<path d="M0 0 C0 4.29 0 8.58 0 13 C0.90878906 12.46890625 1.81757812 11.9378125 2.75390625 11.390625 C22.47829295 0.17521307 44.06989304 -2.73005551 66.12890625 3.00390625 C79.76276071 6.96993372 90.3758792 15.03383009 98 27 C102.62082827 36.04600581 102.58812762 45.13877777 102.57421875 55.0234375 C102.58669844 56.6581062 102.60104205 58.29276162 102.61714172 59.92739868 C102.65493613 64.20653074 102.6703083 68.4854326 102.67993164 72.76470947 C102.69976077 79.60368088 102.75712577 86.44247934 102.80869484 93.28126907 C102.8238016 95.64564879 102.83118666 98.00994013 102.83683777 100.37435913 C102.18319354 118.21932626 102.18319354 118.21932626 107 135 C111.57934488 139.35596221 116.94767549 140.09095521 123 141 C123 142.32 123 143.64 123 145 C101.55 145 80.1 145 58 145 C58 143.68 58 142.36 58 141 C58.80824219 140.84144531 59.61648438 140.68289062 60.44921875 140.51953125 C68.92327568 138.80393104 68.92327568 138.80393104 75 133 C79.6948205 121.73243081 78.16240538 107.50199736 78.16796875 95.45703125 C78.17119173 93.79562859 78.17455653 92.1342262 78.17805481 90.4728241 C78.18399711 87.0145095 78.18589953 83.55621972 78.18530273 80.09790039 C78.18520077 75.69028906 78.19891036 71.28283756 78.21607494 66.87526417 C78.22724197 63.45297019 78.22922059 60.03071449 78.22869301 56.60840416 C78.22986382 54.98387788 78.2342344 53.35935032 78.24202538 51.7348423 C78.29373253 39.8530175 77.90485079 29.56414712 72 19 C71.71125 18.30648437 71.4225 17.61296875 71.125 16.8984375 C69.69738121 14.48933079 68.56646368 14.07568304 66 13 C65.06285156 12.51402344 64.12570312 12.02804688 63.16015625 11.52734375 C62.13792969 11.00269531 61.11570312 10.47804688 60.0625 9.9375 C59.04285156 9.41027344 58.02320313 8.88304688 56.97265625 8.33984375 C44.66828708 2.79398485 28.20892279 5.52066367 16 10 C10.75036914 12.30185156 5.77071847 14.81952102 1 18 C0.70846005 20.9825709 0.61160398 23.75710197 0.64355469 26.74145508 C0.64151031 27.64745453 0.63946594 28.55345398 0.63735962 29.48690796 C0.6343395 32.49798441 0.65288042 35.50851931 0.671875 38.51953125 C0.67493345 40.61545171 0.67680892 42.7113742 0.67755127 44.80729675 C0.68216368 49.21332516 0.69661432 53.61917176 0.71875 58.02514648 C0.74684184 63.64230147 0.75794192 69.2593121 0.7624321 74.87653065 C0.76762429 80.25754905 0.78215653 85.63853207 0.796875 91.01953125 C0.79969608 92.5409117 0.79969608 92.5409117 0.80257416 94.09302711 C-0.23584872 115.14782855 -0.23584872 115.14782855 5 135 C9.57934488 139.35596221 14.94767549 140.09095521 21 141 C21 142.32 21 143.64 21 145 C-0.45 145 -21.9 145 -44 145 C-44 143.68 -44 142.36 -44 141 C-43.19175781 140.84144531 -42.38351562 140.68289062 -41.55078125 140.51953125 C-33.07672432 138.80393104 -33.07672432 138.80393104 -27 133 C-22.44265365 122.06236876 -23.84860839 108.52631758 -23.8671875 96.875 C-23.86651136 95.35530583 -23.86553877 93.83561177 -23.86428833 92.31591797 C-23.86282592 89.15265865 -23.86491851 85.98942784 -23.86962891 82.82617188 C-23.87532528 78.80900807 -23.87203839 74.79191112 -23.86605644 70.77474976 C-23.86241116 67.64314283 -23.86360747 64.51155128 -23.86618423 61.37994385 C-23.86684258 59.90024813 -23.86606419 58.42055092 -23.86370468 56.94085693 C-23.08069073 38.43803113 -23.08069073 38.43803113 -28 21 C-32.57934488 16.64403779 -37.94767549 15.90904479 -44 15 C-43.67 13.68 -43.34 12.36 -43 11 C-42.43192627 10.96036133 -41.86385254 10.92072266 -41.27856445 10.87988281 C-28.10426236 9.91574709 -10.919417 0 0 0 Z " fill="#FFFFFF" transform="translate(1309,64)"/>
<path d="M0 0 C0 4.29 0 8.58 0 13 C0.90878906 12.46890625 1.81757812 11.9378125 2.75390625 11.390625 C22.47829295 0.17521307 44.06989304 -2.73005551 66.12890625 3.00390625 C79.76276071 6.96993372 90.3758792 15.03383009 98 27 C102.62082827 36.04600581 102.58812762 45.13877777 102.57421875 55.0234375 C102.58669844 56.6581062 102.60104205 58.29276162 102.61714172 59.92739868 C102.65493613 64.20653074 102.6703083 68.4854326 102.67993164 72.76470947 C102.69976077 79.60368088 102.75712577 86.44247934 102.80869484 93.28126907 C102.8238016 95.64564879 102.83118666 98.00994013 102.83683777 100.37435913 C102.18319354 118.21932626 102.18319354 118.21932626 107 135 C111.57934488 139.35596221 116.94767549 140.09095521 123 141 C123 142.32 123 143.64 123 145 C101.55 145 80.1 145 58 145 C58 143.68 58 142.36 58 141 C58.80824219 140.84144531 59.61648438 140.68289062 60.44921875 140.51953125 C68.92327568 138.80393104 68.92327568 138.80393104 75 133 C79.6948205 121.73243081 78.16240538 107.50199736 78.16796875 95.45703125 C78.17119173 93.79562859 78.17455653 92.1342262 78.17805481 90.4728241 C78.18399711 87.0145095 78.18589953 83.55621972 78.18530273 80.09790039 C78.18520077 75.69028906 78.19891036 71.28283756 78.21607494 66.87526417 C78.22724197 63.45297019 78.22922059 60.03071449 78.22869301 56.60840416 C78.22986382 54.98387788 78.2342344 53.35935032 78.24202538 51.7348423 C78.29373253 39.8530175 77.90485079 29.56414712 72 19 C71.71125 18.30648437 71.4225 17.61296875 71.125 16.8984375 C69.69738121 14.48933079 68.56646368 14.07568304 66 13 C65.06285156 12.51402344 64.12570312 12.02804688 63.16015625 11.52734375 C62.13792969 11.00269531 61.11570312 10.47804688 60.0625 9.9375 C59.04285156 9.41027344 58.02320313 8.88304688 56.97265625 8.33984375 C44.66828708 2.79398485 28.20892279 5.52066367 16 10 C10.75036914 12.30185156 5.77071847 14.81952102 1 18 C0.70846005 20.9825709 0.61160398 23.75710197 0.64355469 26.74145508 C0.64151031 27.64745453 0.63946594 28.55345398 0.63735962 29.48690796 C0.6343395 32.49798441 0.65288042 35.50851931 0.671875 38.51953125 C0.67493345 40.61545171 0.67680892 42.7113742 0.67755127 44.80729675 C0.68216368 49.21332516 0.69661432 53.61917176 0.71875 58.02514648 C0.74684184 63.64230147 0.75794192 69.2593121 0.7624321 74.87653065 C0.76762429 80.25754905 0.78215653 85.63853207 0.796875 91.01953125 C0.79969608 92.5409117 0.79969608 92.5409117 0.80257416 94.09302711 C-0.23584872 115.14782855 -0.23584872 115.14782855 5 135 C9.57934488 139.35596221 14.94767549 140.09095521 21 141 C21 142.32 21 143.64 21 145 C-0.45 145 -21.9 145 -44 145 C-44 143.68 -44 142.36 -44 141 C-43.19175781 140.84144531 -42.38351562 140.68289062 -41.55078125 140.51953125 C-33.07672432 138.80393104 -33.07672432 138.80393104 -27 133 C-22.44265365 122.06236876 -23.84860839 108.52631758 -23.8671875 96.875 C-23.86651136 95.35530583 -23.86553877 93.83561177 -23.86428833 92.31591797 C-23.86282592 89.15265865 -23.86491851 85.98942784 -23.86962891 82.82617188 C-23.87532528 78.80900807 -23.87203839 74.79191112 -23.86605644 70.77474976 C-23.86241116 67.64314283 -23.86360747 64.51155128 -23.86618423 61.37994385 C-23.86684258 59.90024813 -23.86606419 58.42055092 -23.86370468 56.94085693 C-23.08069073 38.43803113 -23.08069073 38.43803113 -28 21 C-32.57934488 16.64403779 -37.94767549 15.90904479 -44 15 C-43.67 13.68 -43.34 12.36 -43 11 C-42.43192627 10.96036133 -41.86385254 10.92072266 -41.27856445 10.87988281 C-28.10426236 9.91574709 -10.919417 0 0 0 Z " fill="#FFFFFF" transform="translate(1127,64)"/>
<path d="M0 0 C15.74375031 12.50469107 26.84790669 30.22629597 29.3828125 50.38671875 C31.32231205 72.47017237 26.43260109 93.1768713 12.0078125 110.38671875 C-0.47727752 124.54616912 -18.35072441 135.13909412 -37.46923828 136.60546875 C-60.66878664 137.76707968 -81.48374984 133.23951729 -99.2355957 117.58447266 C-113.73128293 104.22386603 -122.81499004 86.03196105 -123.9921875 66.2734375 C-124.76262243 44.27992783 -118.44110009 24.54953701 -103.38671875 8.21875 C-76.33999223 -19.43833988 -31.17192836 -23.37466677 0 0 Z M-82.6171875 5.38671875 C-91.44644852 16.73325844 -96.17969516 31.17556029 -97.6171875 45.38671875 C-97.74996094 46.54816406 -97.88273437 47.70960938 -98.01953125 48.90625 C-100.21518452 73.25579805 -96.20299701 98.8013485 -80.9453125 118.55078125 C-72.98954704 127.35652165 -61.16951815 132.43850946 -49.4921875 133.59765625 C-37.83852156 134.13871931 -26.42216593 129.84987045 -17.3984375 122.60546875 C-4.71855058 110.70588256 1.65902525 93.42821038 3.3828125 76.38671875 C3.51558594 75.22527344 3.64835937 74.06382812 3.78515625 72.8671875 C6.07187913 47.50768767 1.39137504 22.94445366 -14.1328125 2.37890625 C-21.60686466 -6.03883937 -33.76152454 -10.73422647 -44.7421875 -11.82421875 C-59.40650486 -12.50506206 -73.39230442 -5.84016024 -82.6171875 5.38671875 Z " fill="#FFFFFF" transform="translate(326.6171875,530.61328125)"/>
<path d="M0 0 C0.66773438 0.64582031 1.33546875 1.29164062 2.0234375 1.95703125 C15.62957992 16.08648684 19.64843391 34.84486144 19.46875 53.79589844 C18.86556531 74.56178806 10.64698647 90.69968777 -4 105 C-4.96679688 105.99773437 -4.96679688 105.99773437 -5.953125 107.015625 C-18.66289635 119.28331734 -37.64942109 125.17684622 -55 125 C-76.49645652 123.91662421 -93.86104232 116.29525961 -109 101 C-109.66773438 100.35417969 -110.33546875 99.70835937 -111.0234375 99.04296875 C-124.62957992 84.91351316 -128.64843391 66.15513856 -128.46875 47.20410156 C-127.86556531 26.43821194 -119.64698647 10.30031223 -105 -4 C-104.35546875 -4.66515625 -103.7109375 -5.3303125 -103.046875 -6.015625 C-73.79907534 -34.24610989 -26.64416889 -26.91925617 0 0 Z M-82 -10 C-82.60199219 -9.52175781 -83.20398438 -9.04351562 -83.82421875 -8.55078125 C-98.68392046 4.70607623 -102.73219973 26.20126635 -103.84375 45.08203125 C-104.67125484 66.7576646 -101.13915364 89.3726486 -86.6875 106.3125 C-77.90628803 115.53204202 -67.42913536 120.93458592 -54.5 121.5 C-44.2586456 121.05212736 -34.9242351 117.42378821 -27 111 C-26.39800781 110.52175781 -25.79601562 110.04351562 -25.17578125 109.55078125 C-10.31607954 96.29392377 -6.26780027 74.79873365 -5.15625 55.91796875 C-4.32874516 34.2423354 -7.86084636 11.6273514 -22.3125 -5.3125 C-31.09371197 -14.53204202 -41.57086464 -19.93458592 -54.5 -20.5 C-64.7413544 -20.05212736 -74.0757649 -16.42378821 -82 -10 Z " fill="#FFFFFF" transform="translate(467,88)"/>
<path d="M0 0 C21.78 0 43.56 0 66 0 C66 1.32 66 2.64 66 4 C64.64455078 4.30744141 64.64455078 4.30744141 63.26171875 4.62109375 C62.08222656 4.89050781 60.90273438 5.15992188 59.6875 5.4375 C57.92986328 5.83775391 57.92986328 5.83775391 56.13671875 6.24609375 C52.99763029 6.95313969 52.99763029 6.95313969 50 8 C45.56677813 16.08411048 45.70778574 26.22514162 45.72875977 35.17236328 C45.72353302 36.34781204 45.71830627 37.5232608 45.71292114 38.73432922 C45.70272724 41.27199097 45.69690884 43.80967336 45.69503975 46.34735489 C45.69135455 50.37684406 45.67491505 54.40608916 45.65428162 58.43551636 C45.60535715 68.4456724 45.57431806 78.45587362 45.55297852 88.46612549 C45.5363637 96.24757567 45.51329225 104.02888053 45.46995777 111.81023395 C45.45192868 115.15187927 45.44138298 118.49315221 45.44125557 121.8348732 C45.43994907 146.9872554 44.00629639 170.29431851 25.875 189.6875 C10.26600554 204.40154368 -10.55446817 209.51836745 -31.58886719 208.92724609 C-55.52507583 207.7300003 -77.24941882 200.93785277 -98 189 C-97.16511066 185.24074421 -95.60164507 182.47782798 -93.6875 179.125 C-88.6557552 169.78457355 -87.47915535 159.38087861 -86 149 C-85.01 149 -84.02 149 -83 149 C-81.62089912 151.75820177 -81.5464492 154.37469051 -81.1875 157.4375 C-79.22212513 171.4820401 -73.51170963 185.13635137 -62 194 C-47.3580261 203.091899 -31.11983023 206.30032731 -14.1875 202.75 C-3.82056057 200.06781952 4.27338268 195.58288944 10.1875 186.4375 C22.39833125 164.71850149 20.15843131 136.95441295 20.1328125 112.88671875 C20.13348836 110.61570729 20.13446071 108.34469591 20.13571167 106.07368469 C20.1371739 101.34981588 20.13508104 96.62596617 20.13037109 91.90209961 C20.12465824 85.88310328 20.12797208 79.8641514 20.13394356 73.84515667 C20.13757524 69.1685605 20.13639892 64.49197469 20.13381577 59.81537819 C20.13315455 57.596871 20.13394634 55.37836284 20.13629532 53.1598568 C21.40372866 30.93524448 21.40372866 30.93524448 16 10 C11.42065512 5.64403779 6.05232451 4.90904479 0 4 C0 2.68 0 1.36 0 0 Z " fill="#FFFFFF" transform="translate(855,4)"/>
<path d="M0 0 C14.43916651 10.23482097 25.91552369 25.2033834 29 43 C29 46.63 29 50.26 29 54 C-8.62 54 -46.24 54 -85 54 C-85 78.54469899 -83.88857464 104.61946485 -66.25 123.5625 C-54.73176252 134.19608022 -41.72289181 136.69875393 -26.62890625 136.3046875 C-7.42102031 135.34409473 8.08644127 125.55622417 21 112 C21.99 110.515 21.99 110.515 23 109 C23.99 109 24.98 109 26 109 C26.33 109.99 26.66 110.98 27 112 C14.59401989 127.00622342 -2.20710682 138.81810626 -22 141 C-45.51379937 142.49663504 -67.42628666 138.96383766 -85.76953125 123.109375 C-100.31194997 109.35647464 -110.45421495 91.50692426 -111.23828125 71.12890625 C-111.67733413 49.32130663 -106.3720433 29.1970188 -91 13 C-67.28164692 -11.23157865 -29.35387335 -19.18611602 0 0 Z M-63 3 C-63.60199219 3.47824219 -64.20398437 3.95648437 -64.82421875 4.44921875 C-75.78815137 14.23052493 -82.44895199 30.86457671 -83.55688477 45.24755859 C-83.68378441 46.86457169 -83.68378441 46.86457169 -83.81324768 48.51425171 C-83.87487595 49.33454865 -83.93650421 50.15484558 -84 51 C-73.95100281 51.06961479 -63.90206333 51.12286953 -53.8528738 51.15543652 C-49.18625284 51.17106973 -44.51979727 51.19226508 -39.85327148 51.22631836 C-35.3469436 51.25899555 -30.84077449 51.27687064 -26.33433723 51.28463173 C-24.61799687 51.29016025 -22.90166487 51.30095612 -21.18539238 51.31719017 C-18.77501758 51.3390759 -16.3652927 51.34196233 -13.95483398 51.34057617 C-13.25064331 51.351362 -12.54645264 51.36214783 -11.82092285 51.3732605 C-6.06474976 51.3376133 -1.16279363 50.16279363 3 46 C4.66999434 31.46888043 0.26105988 16.59297151 -8.8125 5.125 C-16.24435558 -2.76893986 -25.57524466 -6.82432708 -36.375 -7.4375 C-46.22328386 -7.03156715 -55.41709198 -3.14709112 -63 3 Z " fill="#FFFFFF" transform="translate(1543,526)"/>
<path d="M0 0 C0.75925781 0.57234375 1.51851562 1.1446875 2.30078125 1.734375 C13.81627241 11.04223314 20.46666002 24.86664009 24 39 C24 42.63 24 46.26 24 50 C-12.3 50 -48.6 50 -86 50 C-85.24638057 86.32319648 -85.24638057 86.32319648 -67.890625 117.3984375 C-56.02390789 127.45082183 -42.18848593 130.10346272 -27.06396484 129.17578125 C-9.92739648 127.71631482 5.78139294 117.65432165 17 105 C17.33 104.34 17.66 103.68 18 103 C19.32 103.33 20.64 103.66 22 104 C18.27157346 114.88091826 6.74308596 121.78453689 -3 127 C-23.57777844 136.51346113 -45.4240526 137.11180138 -66.63671875 129.40625 C-71.47204512 127.38451075 -75.73747269 125.04366738 -80 122 C-80.89203125 121.36449219 -81.7840625 120.72898438 -82.703125 120.07421875 C-96.94023485 109.19754404 -107.48672724 93.18666265 -110.69091797 75.41015625 C-111.33441826 70.39227722 -111.40239404 65.36589127 -111.4375 60.3125 C-111.44765137 59.27971924 -111.45780273 58.24693848 -111.46826172 57.18286133 C-111.34989384 46.70230236 -109.12819708 37.10004324 -104.25 27.8125 C-103.89929443 27.13179443 -103.54858887 26.45108887 -103.18725586 25.74975586 C-100.32909193 20.34240126 -97.12178224 15.53749848 -93 11 C-92.35804687 10.26652344 -91.71609375 9.53304687 -91.0546875 8.77734375 C-78.21303054 -5.03573007 -60.90430398 -12.92038634 -42.09277344 -13.95703125 C-26.36412349 -14.27997133 -12.35320618 -9.84945752 0 0 Z M-66 1 C-66.60199219 1.55042969 -67.20398437 2.10085937 -67.82421875 2.66796875 C-77.62398628 12.64391187 -84.89757985 29.75326804 -85.03710938 43.71264648 C-85.02486328 44.79747314 -85.01261719 45.8822998 -85 47 C-75.34214592 47.06962635 -65.68437875 47.12287529 -56.02632809 47.15543652 C-51.54130603 47.17106726 -47.05645617 47.19225798 -42.5715332 47.22631836 C-38.24026874 47.25900453 -33.90916953 47.2768725 -29.57779121 47.28463173 C-27.9284359 47.29015866 -26.27908924 47.3009514 -24.62980461 47.31719017 C-22.31282141 47.33908799 -19.99651401 47.34196185 -17.67944336 47.34057617 C-15.70420937 47.35056892 -15.70420937 47.35056892 -13.68907166 47.36076355 C-9.38543943 46.93990058 -6.80731106 46.0170826 -3 44 C0.54698493 38.6795226 -0.59133772 33.20456735 -1.72265625 27.1015625 C-3.40363631 19.51293321 -5.39411279 12.37168311 -10 6 C-10.55300781 5.23171875 -11.10601563 4.4634375 -11.67578125 3.671875 C-18.11327527 -4.37832456 -26.77771457 -9.02039177 -37 -10.23828125 C-48.17488004 -10.65297406 -57.98121521 -6.63919735 -66 1 Z " fill="#FFFFFF" transform="translate(1553,78)"/>
<path d="M0 0 C0.75925781 0.57234375 1.51851562 1.1446875 2.30078125 1.734375 C13.81627241 11.04223314 20.46666002 24.86664009 24 39 C24 42.63 24 46.26 24 50 C-12.3 50 -48.6 50 -86 50 C-85.24638057 86.32319648 -85.24638057 86.32319648 -67.890625 117.3984375 C-56.02390789 127.45082183 -42.18848593 130.10346272 -27.06396484 129.17578125 C-9.92739648 127.71631482 5.78139294 117.65432165 17 105 C17.33 104.34 17.66 103.68 18 103 C19.32 103.33 20.64 103.66 22 104 C18.27157346 114.88091826 6.74308596 121.78453689 -3 127 C-23.57777844 136.51346113 -45.4240526 137.11180138 -66.63671875 129.40625 C-71.47204512 127.38451075 -75.73747269 125.04366738 -80 122 C-80.89203125 121.36449219 -81.7840625 120.72898438 -82.703125 120.07421875 C-96.94023485 109.19754404 -107.48672724 93.18666265 -110.69091797 75.41015625 C-111.33441826 70.39227722 -111.40239404 65.36589127 -111.4375 60.3125 C-111.44765137 59.27971924 -111.45780273 58.24693848 -111.46826172 57.18286133 C-111.34989384 46.70230236 -109.12819708 37.10004324 -104.25 27.8125 C-103.89929443 27.13179443 -103.54858887 26.45108887 -103.18725586 25.74975586 C-100.32909193 20.34240126 -97.12178224 15.53749848 -93 11 C-92.35804688 10.26652344 -91.71609375 9.53304687 -91.0546875 8.77734375 C-78.21303054 -5.03573007 -60.90430398 -12.92038634 -42.09277344 -13.95703125 C-26.36412349 -14.27997133 -12.35320618 -9.84945752 0 0 Z M-66 1 C-66.60199219 1.55042969 -67.20398438 2.10085937 -67.82421875 2.66796875 C-77.62398628 12.64391187 -84.89757985 29.75326804 -85.03710938 43.71264648 C-85.02486328 44.79747314 -85.01261719 45.8822998 -85 47 C-75.34214592 47.06962635 -65.68437875 47.12287529 -56.02632809 47.15543652 C-51.54130603 47.17106726 -47.05645617 47.19225798 -42.5715332 47.22631836 C-38.24026874 47.25900453 -33.90916953 47.2768725 -29.57779121 47.28463173 C-27.9284359 47.29015866 -26.27908924 47.3009514 -24.62980461 47.31719017 C-22.31282141 47.33908799 -19.99651401 47.34196185 -17.67944336 47.34057617 C-15.70420937 47.35056892 -15.70420937 47.35056892 -13.68907166 47.36076355 C-9.38543943 46.93990058 -6.80731106 46.0170826 -3 44 C0.54698493 38.6795226 -0.59133772 33.20456735 -1.72265625 27.1015625 C-3.40363631 19.51293321 -5.39411279 12.37168311 -10 6 C-10.55300781 5.23171875 -11.10601563 4.4634375 -11.67578125 3.671875 C-18.11327527 -4.37832456 -26.77771457 -9.02039177 -37 -10.23828125 C-48.17488004 -10.65297406 -57.98121521 -6.63919735 -66 1 Z " fill="#FFFFFF" transform="translate(1044,78)"/>
<path d="M0 0 C0 3.96 0 7.92 0 12 C1.64935547 11.07767578 1.64935547 11.07767578 3.33203125 10.13671875 C20.96358667 0.41745139 38.24242552 -3.38603028 58.3125 1.5 C70.0635087 4.90573942 81.63869523 10.03293211 91 18 C90.40251953 18.81791016 90.40251953 18.81791016 89.79296875 19.65234375 C82.35661679 30.23693231 81.22870975 40.40933892 80 53 C78.68 53.33 77.36 53.66 76 54 C75.84144531 52.69546875 75.68289063 51.3909375 75.51953125 50.046875 C73.70742162 36.1001742 71.37433526 21.77945781 59.93359375 12.28515625 C50.1630991 5.33536092 40.91157122 3.91163309 29 5 C20.20599237 6.8235066 11.03422612 10.13524927 3.84765625 15.65234375 C2 17 2 17 0 17 C0.10804575 29.2578347 0.22078328 41.51561672 0.33933926 53.77335453 C0.394259 59.46647956 0.44762559 65.15960992 0.49731445 70.8527832 C0.54541941 76.35768538 0.59777164 81.86253295 0.65294075 87.3673687 C0.67315757 89.45664529 0.69190158 91.54593672 0.70907402 93.63524055 C-0.66774542 117.52616262 -0.66774542 117.52616262 6.68359375 139.12890625 C9.62314519 141.50334999 12.06186739 142.01237348 15.75 142.75 C17.50570313 143.11351562 17.50570313 143.11351562 19.296875 143.484375 C20.18890625 143.65453125 21.0809375 143.8246875 22 144 C22 144.99 22 145.98 22 147 C-0.44 147 -22.88 147 -46 147 C-46 146.01 -46 145.02 -46 144 C-45.11957031 143.84144531 -44.23914062 143.68289063 -43.33203125 143.51953125 C-34.41019687 141.95447926 -34.41019687 141.95447926 -28 136 C-24.69887195 128.73751829 -24.84994837 120.22220951 -24.85473633 112.3659668 C-24.85137772 111.55487457 -24.8480191 110.74378235 -24.84455872 109.90811157 C-24.83514292 107.25513126 -24.8331104 104.60221468 -24.83203125 101.94921875 C-24.82881229 100.08510819 -24.82544775 98.22099787 -24.82194519 96.35688782 C-24.81597743 92.45935481 -24.81410288 88.56184389 -24.81469727 84.66430664 C-24.81479878 79.69852485 -24.80114672 74.73288637 -24.78392506 69.76713848 C-24.77274402 65.91926945 -24.77077992 62.07143441 -24.77130699 58.2235508 C-24.77013606 56.39413776 -24.76576478 54.56472359 -24.75797462 52.73532677 C-23.99754658 34.54036045 -23.99754658 34.54036045 -30 18 C-34.68836994 14.76279219 -39.46225889 14.35687665 -45 14 C-45.33 12.68 -45.66 11.36 -46 10 C-45.31075439 9.93006836 -44.62150879 9.86013672 -43.91137695 9.78808594 C-23.74998264 7.98432412 -23.74998264 7.98432412 -4.79296875 1.375 C-2 0 -2 0 0 0 Z " fill="#FFFFFF" transform="translate(1633,516)"/>
<path d="M0 0 C0.495 5.94 0.495 5.94 1 12 C1.95519531 11.45730469 2.91039062 10.91460937 3.89453125 10.35546875 C11.39611168 6.17114564 18.45291504 2.52120064 27 1 C27.84433594 0.84789063 28.68867187 0.69578125 29.55859375 0.5390625 C47.97840134 -1.92421043 67.39479794 4.48364939 83 14 C84.71910211 15.61252705 86.40300529 17.26645927 88 19 C86.88625 20.3303125 86.88625 20.3303125 85.75 21.6875 C79.17600293 30.98048736 78.15840605 42.97990033 77 54 C76.01 54 75.02 54 74 54 C73.0594202 51.1782606 72.73386478 48.65151731 72.45581055 45.70678711 C71.29991694 34.01484782 68.48177178 21.15200375 59 13.35546875 C49.07272754 6.27194622 38.98105213 4.69784248 27 6 C17.52238337 7.97822894 9.00109123 12.66593918 1 18 C0.70846005 20.9825709 0.61160398 23.75710197 0.64355469 26.74145508 C0.64151031 27.64745453 0.63946594 28.55345398 0.63735962 29.48690796 C0.6343395 32.49798441 0.65288042 35.50851931 0.671875 38.51953125 C0.67493345 40.61545171 0.67680892 42.7113742 0.67755127 44.80729675 C0.68216368 49.21332516 0.69661432 53.61917176 0.71875 58.02514648 C0.74684184 63.64230147 0.75794192 69.2593121 0.7624321 74.87653065 C0.76762429 80.25754905 0.78215653 85.63853207 0.796875 91.01953125 C0.79969608 92.5409117 0.79969608 92.5409117 0.80257416 94.09302711 C-0.23584872 115.14782855 -0.23584872 115.14782855 5 135 C9.57934488 139.35596221 14.94767549 140.09095521 21 141 C21 142.32 21 143.64 21 145 C-0.45 145 -21.9 145 -44 145 C-44 143.68 -44 142.36 -44 141 C-43.19175781 140.84144531 -42.38351562 140.68289062 -41.55078125 140.51953125 C-33.07672432 138.80393104 -33.07672432 138.80393104 -27 133 C-22.44265365 122.06236876 -23.84860839 108.52631758 -23.8671875 96.875 C-23.86651136 95.35530583 -23.86553877 93.83561177 -23.86428833 92.31591797 C-23.86282592 89.15265865 -23.86491851 85.98942784 -23.86962891 82.82617188 C-23.87532528 78.80900807 -23.87203839 74.79191112 -23.86605644 70.77474976 C-23.86241116 67.64314283 -23.86360747 64.51155128 -23.86618423 61.37994385 C-23.86684258 59.90024813 -23.86606419 58.42055092 -23.86370468 56.94085693 C-23.08069073 38.43803113 -23.08069073 38.43803113 -28 21 C-32.57934488 16.64403779 -37.94767549 15.90904479 -44 15 C-43.67 13.68 -43.34 12.36 -43 11 C-42.43192627 10.96036133 -41.86385254 10.92072266 -41.27856445 10.87988281 C-28.10426236 9.91574709 -10.919417 0 0 0 Z " fill="#FFFFFF" transform="translate(1636,64)"/>
<path d="M0 0 C1.32 0 2.64 0 4 0 C4 16.5 4 33 4 50 C17.86 50 31.72 50 46 50 C46 50.99 46 51.98 46 53 C32.14 53 18.28 53 4 53 C4.08559095 67.18687333 4.17938785 81.37362782 4.28752708 95.56034756 C4.33741758 102.14820193 4.38374837 108.73604082 4.421875 115.32397461 C4.45881916 121.68475936 4.5052041 128.04541235 4.55806351 134.40608406 C4.57655893 136.82965846 4.59168468 139.25326105 4.60334396 141.67687798 C4.62028937 145.07826022 4.64934479 148.47934388 4.68115234 151.88061523 C4.68331253 152.87683899 4.68547272 153.87306274 4.68769836 154.8994751 C4.8134572 165.46542985 6.56419748 174.86202254 13.75390625 182.98046875 C19.88356769 188.78816818 27.55063609 192.29588634 36 193 C37.00160156 193.09474609 37.00160156 193.09474609 38.0234375 193.19140625 C53.97749682 194.0129608 68.34563206 187.41454156 80 177 C80.66 177 81.32 177 82 177 C82.33 178.32 82.66 179.64 83 181 C66.87889331 195.33795945 50.85072784 197.94000846 30.02539062 197.19091797 C15.32721036 196.26338593 -0.08369747 190.18035867 -10 179 C-19.10607727 167.06092091 -20.44699063 155.9157454 -20.4765625 141.36328125 C-20.49091299 139.75439683 -20.50667707 138.14552446 -20.52377319 136.53666687 C-20.56540189 132.31916723 -20.59052702 128.10174223 -20.61126709 123.88409424 C-20.64720548 117.15435207 -20.70895289 110.42479637 -20.76975632 103.69524193 C-20.78848854 101.37196732 -20.80047496 99.04874174 -20.81118774 96.72541809 C-19.85328207 76.22306876 -19.85328207 76.22306876 -26.68359375 57.87109375 C-29.62314519 55.49665001 -32.06186739 54.98762652 -35.75 54.25 C-36.92046875 54.00765625 -38.0909375 53.7653125 -39.296875 53.515625 C-40.18890625 53.34546875 -41.0809375 53.1753125 -42 53 C-41.67 51.68 -41.34 50.36 -41 49 C-40.20078125 48.92523437 -39.4015625 48.85046875 -38.578125 48.7734375 C-29.98814044 47.74505907 -23.50310733 45.21548625 -16 41 C-15.26910156 40.690625 -14.53820313 40.38125 -13.78515625 40.0625 C-11.4988845 38.70174307 -11.03614227 37.41766531 -10 35 C-9.19801943 33.76394413 -8.38512882 32.53491105 -7.5625 31.3125 C-1.54183857 21.59090257 -1.0222555 11.14859824 0 0 Z " fill="#FFFFFF" transform="translate(1348,470)"/>
<path d="M0 0 C-0.59748047 1.01707031 -0.59748047 1.01707031 -1.20703125 2.0546875 C-7.35377857 12.85262317 -9.49469867 22.70965738 -11 35 C-12.98 34.505 -12.98 34.505 -15 34 C-15.08636719 33.12859375 -15.17273438 32.2571875 -15.26171875 31.359375 C-16.99715273 16.64798972 -21.7663994 4.86653479 -33.25 -4.8125 C-42.48786736 -11.61851851 -53.71119146 -13.87325523 -65 -13 C-76.64540783 -11.07175125 -86.96293034 -6.40179296 -94.37890625 3.0234375 C-95.12215835 4.13044747 -95.84962559 5.2481882 -96.5625 6.375 C-96.94672119 6.97932861 -97.33094238 7.58365723 -97.72680664 8.20629883 C-110.46241444 29.1292752 -111.52321103 57.89312744 -106.49072266 81.37646484 C-102.56564771 96.86303974 -95.61528705 111.19874391 -81.4765625 119.75 C-68.48052222 126.3095156 -53.63769125 127.04611949 -39.625 123.4375 C-25.78002743 118.82788166 -12.79126984 110.8227422 -4 99 C-3.01 99.33 -2.02 99.66 -1 100 C-1.74568009 106.36810799 -8.36967518 111.00697036 -13 115 C-30.33020957 128.03406518 -50.43950452 132.76016442 -71.81420898 130.03320312 C-91.35297103 127.17116224 -108.76313556 116.80795441 -120.56958008 101.00488281 C-133.34932951 83.13855027 -136.40768172 63.14680226 -133.70263672 41.63525391 C-130.58153266 23.70255777 -120.2213357 8.14493946 -106.0625 -2.9375 C-74.27939212 -25.24286877 -31.42449215 -21.07834486 0 0 Z " fill="#FFFFFF" transform="translate(330,82)"/>
<path d="M0 0 C170.28 0 340.56 0 516 0 C516 1.98 516 3.96 516 6 C345.72 6 175.44 6 0 6 C0 4.02 0 2.04 0 0 Z " fill="#FFFFFF" transform="translate(1139,340)"/>
<path d="M0 0 C170.28 0 340.56 0 516 0 C516 1.98 516 3.96 516 6 C345.72 6 175.44 6 0 6 C0 4.02 0 2.04 0 0 Z " fill="#FFFFFF" transform="translate(69,335)"/>
<path d="M0 0 C7.30985434 -0.10223167 14.61952128 -0.17181144 21.92993164 -0.21972656 C24.41177256 -0.2397219 26.89356709 -0.26692726 29.37524414 -0.30175781 C32.96251947 -0.35080964 36.54916678 -0.37309058 40.13671875 -0.390625 C41.22893234 -0.41127014 42.32114594 -0.43191528 43.44645691 -0.45318604 C58.04174343 -0.45734556 69.28120517 4.51769971 79.8125 14.4375 C89.51747227 24.75757614 92.63812839 37.04666592 92.47021484 50.96972656 C91.92962013 65.3720947 86.24974155 76.64304106 75.79296875 86.4765625 C65.53004322 95.19669531 53.34270865 97.64024608 40.13671875 97.390625 C38.97872269 97.38496521 37.82072662 97.37930542 36.62763977 97.37347412 C32.98048026 97.35133733 29.33435539 97.30118394 25.6875 97.25 C23.1933737 97.22990568 20.69923179 97.2116601 18.20507812 97.1953125 C12.13637421 97.15154738 6.06826105 97.08486742 0 97 C0 96.34 0 95.68 0 95 C3.465 94.505 3.465 94.505 7 94 C8.75540422 84.5550882 9.28493569 75.41793777 9.23046875 65.828125 C9.22927206 64.41095014 9.22882482 62.99377447 9.2290802 61.57659912 C9.22753069 58.63190619 9.21935786 55.68733748 9.20581055 52.74267578 C9.1887602 48.99190602 9.18499902 45.24127107 9.18575573 41.49046707 C9.18548238 38.57347355 9.17997583 35.65650874 9.17275429 32.73952484 C9.16960211 31.35700446 9.16760842 29.97448087 9.16686058 28.59195709 C9.19042503 15.68001795 9.19042503 15.68001795 7 3 C4.69 2.67 2.38 2.34 0 2 C0 1.34 0 0.68 0 0 Z M22 2 C22 32.69 22 63.38 22 95 C47.38631069 96.45224047 47.38631069 96.45224047 68 85 C79.76376659 70.37347631 80.43095899 54.02945703 79 36 C77.62389343 25.70066705 72.33188872 15.14382422 64.1875 8.5625 C49.09703803 -0.6719618 42.09999292 2 22 2 Z " fill="#FFFFFF" transform="translate(915,285)"/>
<path d="M0 0 C19.29371671 -2.03840843 19.29371671 -2.03840843 24.90966797 1.05029297 C28.04083196 3.88646997 30.01035821 7.43792169 31.97265625 11.14013672 C33.65258916 14.1814221 35.74897762 16.89929544 37.8125 19.6875 C38.6498929 20.86262322 39.48445665 22.03976683 40.31640625 23.21875 C43.2723666 27.39083279 46.2576546 31.54145765 49.25 35.6875 C49.79068115 36.43668701 50.3313623 37.18587402 50.88842773 37.95776367 C55.57026534 44.43139026 60.30569317 50.86493704 65.06738281 57.2800293 C68.00179921 61.2435837 70.88238779 65.23749749 73.70556641 69.28125 C74.32557526 70.16876953 74.94558411 71.05628906 75.5843811 71.97070312 C76.05153534 72.64037109 76.51868958 73.31003906 77 74 C77.04634803 65.46376552 77.08188171 56.92758365 77.10362434 48.39125443 C77.1140599 44.42745773 77.12821492 40.46374714 77.15087891 36.5 C77.17261545 32.67449853 77.18457034 28.84907988 77.18975449 25.02352142 C77.19344879 23.56428473 77.20066283 22.10505256 77.21146011 20.64585114 C77.225986 18.60136635 77.22797751 16.55722343 77.22705078 14.51269531 C77.231492 13.34909485 77.23593323 12.18549438 77.24050903 10.9866333 C77.00551988 8.06854566 76.63794653 6.40303499 75 4 C72.82791412 3.08839907 72.82791412 3.08839907 70.375 2.75 C69.55773437 2.60046875 68.74046875 2.4509375 67.8984375 2.296875 C67.27195312 2.19890625 66.64546875 2.1009375 66 2 C66 1.34 66 0.68 66 0 C74.91 0 83.82 0 93 0 C93 0.66 93 1.32 93 2 C92.37351562 2.10957031 91.74703125 2.21914063 91.1015625 2.33203125 C90.28429687 2.49058594 89.46703125 2.64914062 88.625 2.8125 C87.81289063 2.96332031 87.00078125 3.11414063 86.1640625 3.26953125 C83.64179359 3.87544942 83.64179359 3.87544942 82 7 C80.82004467 12.69725695 80.84071654 18.65747327 80.79467773 24.45727539 C80.78477814 25.24862885 80.77487854 26.0399823 80.76467896 26.85531616 C80.73343045 29.43606717 80.70845372 32.0168365 80.68359375 34.59765625 C80.66299245 36.40083762 80.64199521 38.20401451 80.62062073 40.00718689 C80.56572779 44.72692202 80.51617555 49.44669834 80.46777344 54.16650391 C80.41731732 58.99320084 80.36175778 63.81983881 80.30664062 68.64648438 C80.19946068 78.09760574 80.09792847 87.54877856 80 97 C76.76395617 95.47959644 75.10466562 94.20050981 73.00390625 91.28125 C72.4521875 90.52328125 71.90046875 89.7653125 71.33203125 88.984375 C70.74808594 88.16453125 70.16414062 87.3446875 69.5625 86.5 C68.94632813 85.64921875 68.33015625 84.7984375 67.6953125 83.921875 C65.78912621 81.28673812 63.89406833 78.6438554 62 76 C60.89533791 74.46816797 59.78990752 72.93688959 58.68359375 71.40625 C57.08646922 69.19638602 55.48998537 66.98609207 53.89672852 64.7734375 C49.39402697 58.52395723 44.82627752 52.32390308 40.24804688 46.12963867 C35.59862789 39.83149416 31.00383014 33.49533348 26.4375 27.13671875 C25.9425 26.44835937 25.4475 25.76 24.9375 25.05078125 C24.30134766 24.16386597 24.30134766 24.16386597 23.65234375 23.2590332 C21.13355917 19.81542893 18.56464416 16.40952561 16 13 C15.95366884 22.84006632 15.91812681 32.6801067 15.89637566 42.52025986 C15.88593644 47.08939211 15.8717747 51.65844975 15.84912109 56.22753906 C15.82739767 60.63658634 15.81543241 65.04556184 15.81024551 69.45465851 C15.80654886 71.13718038 15.79933028 72.8196983 15.78853989 74.50218964 C15.77403158 76.85799158 15.77202177 79.21349653 15.77294922 81.56933594 C15.76575867 82.26561096 15.75856812 82.96188599 15.75115967 83.67926025 C15.76642422 87.26022373 15.89741865 90.02290278 18 93 C20.17208588 93.91160093 20.17208588 93.91160093 22.625 94.25 C23.44226563 94.39953125 24.25953125 94.5490625 25.1015625 94.703125 C25.72804688 94.80109375 26.35453125 94.8990625 27 95 C27 95.66 27 96.32 27 97 C18.09 97 9.18 97 0 97 C0 96.34 0 95.68 0 95 C0.93972656 94.83564453 0.93972656 94.83564453 1.8984375 94.66796875 C2.71570313 94.50941406 3.53296875 94.35085938 4.375 94.1875 C5.18710937 94.03667969 5.99921875 93.88585937 6.8359375 93.73046875 C9.35820641 93.12455058 9.35820641 93.12455058 11 90 C12.29219774 82.11380826 12.14624505 74.19088606 12.1328125 66.21875 C12.13348777 64.79585758 12.13445965 63.37296527 12.13571167 61.95007324 C12.13717815 58.98151542 12.13506806 56.01298787 12.13037109 53.04443359 C12.12467445 49.26216979 12.12795911 45.47997697 12.13394356 41.69771576 C12.13757764 38.76356483 12.13639757 35.82943039 12.13381577 32.89527893 C12.13315436 31.50159191 12.13394705 30.10790334 12.13629532 28.71421814 C12.8609595 16.11999772 12.8609595 16.11999772 9.375 4.5 C6.28950409 2.55126574 3.60351091 2.27719315 0 2 C0 1.34 0 0.68 0 0 Z " fill="#FFFFFF" transform="translate(815,285)"/>
<path d="M0 0 C7.92 0 15.84 0 24 0 C25.52109375 3.57328125 27.0421875 7.1465625 28.609375 10.828125 C31.71848075 18.13170441 34.82838642 25.43494044 37.94091797 32.73706055 C38.73242976 34.59405262 39.5239399 36.45104539 40.31544876 38.30803871 C40.84010671 39.53894113 41.36478276 40.76983584 41.88947678 42.00072289 C44.64637311 48.46853194 47.40057671 54.93741725 50.13903809 61.41305542 C50.97950674 63.40004744 51.82186155 65.38622653 52.66503906 67.37207031 C53.60061836 69.57678328 54.53259334 71.78303132 55.45996094 73.99121094 C59.53780409 84.49927608 59.53780409 84.49927608 66.5 93 C69.00611023 94.00244409 71.33030598 94.61861514 74 95 C74 95.66 74 96.32 74 97 C63.11 97 52.22 97 41 97 C41 96.34 41 95.68 41 95 C42.98 94.34 44.96 93.68 47 93 C45.51101416 83.76199633 41.59827198 75.5740133 37.875 67.0625 C36.88693023 64.79090115 35.90116392 62.51836247 34.91946411 60.2440033 C34.31143678 58.83661564 33.69948824 57.43091417 33.08322144 56.02711487 C31 51.22304887 31 51.22304887 31 49 C19.78 49 8.56 49 -3 49 C-3.99 51.97 -4.98 54.94 -6 58 C-6.93911753 60.26679156 -7.91038 62.52061545 -8.91796875 64.7578125 C-9.71557617 66.56185547 -9.71557617 66.56185547 -10.52929688 68.40234375 C-11.35980045 70.2720226 -12.19413489 72.13965658 -13.0378418 74.00341797 C-13.86367171 75.83301508 -14.67226624 77.67036064 -15.48046875 79.5078125 C-15.96410889 80.58691895 -16.44774902 81.66602539 -16.94604492 82.77783203 C-18.11488515 86.35122868 -18.19012054 89.26420515 -18 93 C-15.69 93.66 -13.38 94.32 -11 95 C-11 95.66 -11 96.32 -11 97 C-19.91 97 -28.82 97 -38 97 C-38 96.34 -38 95.68 -38 95 C-37.41992188 94.91363281 -36.83984375 94.82726562 -36.2421875 94.73828125 C-35.46101562 94.59777344 -34.67984375 94.45726562 -33.875 94.3125 C-33.10929688 94.18488281 -32.34359375 94.05726563 -31.5546875 93.92578125 C-25.66116833 91.79005641 -22.97656371 88.43642842 -20.3515625 82.94140625 C-19.42573322 80.82244033 -18.51812727 78.69545572 -17.625 76.5625 C-16.87549072 74.82577026 -16.87549072 74.82577026 -16.11083984 73.05395508 C-14.69886662 69.77700259 -13.31005562 66.49068322 -11.92675781 63.20153809 C-10.94922659 60.87938641 -9.96727221 58.55914306 -8.984375 56.23925781 C-5.20952358 47.32685726 -1.44777917 38.4090662 2.27597046 29.47517395 C3.75544334 25.93305023 5.25449574 22.40273185 6.80957031 18.89306641 C7.09144196 18.25274979 7.3733136 17.61243317 7.66372681 16.95271301 C8.42183677 15.23712454 9.18837761 13.5252685 9.95556641 11.8137207 C11.231995 8.87522023 11.231995 8.87522023 11 5 C7.34920174 3.38935371 3.9492568 2.55105909 0 2 C0 1.34 0 0.68 0 0 Z M13 11 C10.86147583 15.96524362 8.72529188 20.93148472 6.59130859 25.89868164 C5.86441904 27.58971619 5.13688104 29.28047215 4.40869141 30.97094727 C3.36451951 33.3952729 2.32265357 35.82057789 1.28125 38.24609375 C0.95314331 39.00651474 0.62503662 39.76693573 0.2869873 40.55039978 C-1.29907184 43.670943 -1.29907184 43.670943 -2 47 C8.56 47 19.12 47 30 47 C28.453125 43.2875 26.90625 39.575 25.3125 35.75 C21.875 27.5 18.4375 19.25 15 11 C14.34 11 13.68 11 13 11 Z " fill="#FFFFFF" transform="translate(740,285)"/>
</svg>
